<mxfile host="app.diagrams.net" agent="Mozilla/5.0 (Windows NT 10.0; Win64; x64) AppleWebKit/537.36 (KHTML, like Gecko) Chrome/131.0.0.0 Safari/537.36" version="25.0.3">
  <diagram name="Page-1" id="froMjkovQUN1zaO_eRnk">
    <mxGraphModel dx="724" dy="360" grid="1" gridSize="10" guides="1" tooltips="1" connect="1" arrows="1" fold="1" page="1" pageScale="1" pageWidth="827" pageHeight="1169" math="0" shadow="0">
      <root>
        <mxCell id="0" />
        <mxCell id="1" parent="0" />
        <mxCell id="F9JthO-cuX8_xqFH1Uu4-3" value="" style="edgeStyle=orthogonalEdgeStyle;rounded=0;orthogonalLoop=1;jettySize=auto;html=1;" edge="1" parent="1" source="F9JthO-cuX8_xqFH1Uu4-1" target="F9JthO-cuX8_xqFH1Uu4-2">
          <mxGeometry relative="1" as="geometry" />
        </mxCell>
        <mxCell id="F9JthO-cuX8_xqFH1Uu4-1" value="เริ่ม" style="ellipse;whiteSpace=wrap;html=1;" vertex="1" parent="1">
          <mxGeometry x="354" y="30" width="120" height="40" as="geometry" />
        </mxCell>
        <mxCell id="F9JthO-cuX8_xqFH1Uu4-5" value="" style="edgeStyle=orthogonalEdgeStyle;rounded=0;orthogonalLoop=1;jettySize=auto;html=1;" edge="1" parent="1" source="F9JthO-cuX8_xqFH1Uu4-2" target="F9JthO-cuX8_xqFH1Uu4-4">
          <mxGeometry relative="1" as="geometry" />
        </mxCell>
        <mxCell id="F9JthO-cuX8_xqFH1Uu4-2" value="รับค่า num" style="shape=parallelogram;perimeter=parallelogramPerimeter;whiteSpace=wrap;html=1;fixedSize=1;" vertex="1" parent="1">
          <mxGeometry x="354" y="100" width="120" height="40" as="geometry" />
        </mxCell>
        <mxCell id="F9JthO-cuX8_xqFH1Uu4-7" value="" style="edgeStyle=orthogonalEdgeStyle;rounded=0;orthogonalLoop=1;jettySize=auto;html=1;" edge="1" parent="1" source="F9JthO-cuX8_xqFH1Uu4-4" target="F9JthO-cuX8_xqFH1Uu4-6">
          <mxGeometry relative="1" as="geometry" />
        </mxCell>
        <mxCell id="F9JthO-cuX8_xqFH1Uu4-4" value="num เท่ากับ 1" style="rhombus;whiteSpace=wrap;html=1;" vertex="1" parent="1">
          <mxGeometry x="348.5" y="180" width="131" height="60" as="geometry" />
        </mxCell>
        <mxCell id="F9JthO-cuX8_xqFH1Uu4-6" value="แสดง One" style="rounded=0;whiteSpace=wrap;html=1;" vertex="1" parent="1">
          <mxGeometry x="510" y="190" width="110" height="40" as="geometry" />
        </mxCell>
        <mxCell id="F9JthO-cuX8_xqFH1Uu4-8" value="" style="edgeStyle=orthogonalEdgeStyle;rounded=0;orthogonalLoop=1;jettySize=auto;html=1;" edge="1" parent="1" target="F9JthO-cuX8_xqFH1Uu4-10">
          <mxGeometry relative="1" as="geometry">
            <mxPoint x="414" y="240" as="sourcePoint" />
          </mxGeometry>
        </mxCell>
        <mxCell id="F9JthO-cuX8_xqFH1Uu4-9" value="" style="edgeStyle=orthogonalEdgeStyle;rounded=0;orthogonalLoop=1;jettySize=auto;html=1;" edge="1" parent="1" source="F9JthO-cuX8_xqFH1Uu4-10" target="F9JthO-cuX8_xqFH1Uu4-11">
          <mxGeometry relative="1" as="geometry" />
        </mxCell>
        <mxCell id="F9JthO-cuX8_xqFH1Uu4-10" value="num เท่ากับ 2" style="rhombus;whiteSpace=wrap;html=1;" vertex="1" parent="1">
          <mxGeometry x="348.5" y="280" width="131" height="60" as="geometry" />
        </mxCell>
        <mxCell id="F9JthO-cuX8_xqFH1Uu4-11" value="แสดง Two" style="rounded=0;whiteSpace=wrap;html=1;" vertex="1" parent="1">
          <mxGeometry x="510" y="290" width="110" height="40" as="geometry" />
        </mxCell>
        <mxCell id="F9JthO-cuX8_xqFH1Uu4-12" value="" style="edgeStyle=orthogonalEdgeStyle;rounded=0;orthogonalLoop=1;jettySize=auto;html=1;" edge="1" parent="1" target="F9JthO-cuX8_xqFH1Uu4-14">
          <mxGeometry relative="1" as="geometry">
            <mxPoint x="414" y="340" as="sourcePoint" />
          </mxGeometry>
        </mxCell>
        <mxCell id="F9JthO-cuX8_xqFH1Uu4-13" value="" style="edgeStyle=orthogonalEdgeStyle;rounded=0;orthogonalLoop=1;jettySize=auto;html=1;" edge="1" parent="1" source="F9JthO-cuX8_xqFH1Uu4-14" target="F9JthO-cuX8_xqFH1Uu4-15">
          <mxGeometry relative="1" as="geometry" />
        </mxCell>
        <mxCell id="F9JthO-cuX8_xqFH1Uu4-14" value="num เท่ากับ 3" style="rhombus;whiteSpace=wrap;html=1;" vertex="1" parent="1">
          <mxGeometry x="348.5" y="380" width="131" height="60" as="geometry" />
        </mxCell>
        <mxCell id="F9JthO-cuX8_xqFH1Uu4-15" value="แสดง Three" style="rounded=0;whiteSpace=wrap;html=1;" vertex="1" parent="1">
          <mxGeometry x="510" y="390" width="110" height="40" as="geometry" />
        </mxCell>
        <mxCell id="F9JthO-cuX8_xqFH1Uu4-16" value="" style="edgeStyle=orthogonalEdgeStyle;rounded=0;orthogonalLoop=1;jettySize=auto;html=1;" edge="1" parent="1" target="F9JthO-cuX8_xqFH1Uu4-18">
          <mxGeometry relative="1" as="geometry">
            <mxPoint x="414" y="440" as="sourcePoint" />
          </mxGeometry>
        </mxCell>
        <mxCell id="F9JthO-cuX8_xqFH1Uu4-17" value="" style="edgeStyle=orthogonalEdgeStyle;rounded=0;orthogonalLoop=1;jettySize=auto;html=1;" edge="1" parent="1" source="F9JthO-cuX8_xqFH1Uu4-18" target="F9JthO-cuX8_xqFH1Uu4-19">
          <mxGeometry relative="1" as="geometry" />
        </mxCell>
        <mxCell id="F9JthO-cuX8_xqFH1Uu4-18" value="num เท่ากับ 4" style="rhombus;whiteSpace=wrap;html=1;" vertex="1" parent="1">
          <mxGeometry x="348.5" y="480" width="131" height="60" as="geometry" />
        </mxCell>
        <mxCell id="F9JthO-cuX8_xqFH1Uu4-19" value="แสดง Four" style="rounded=0;whiteSpace=wrap;html=1;" vertex="1" parent="1">
          <mxGeometry x="510" y="490" width="110" height="40" as="geometry" />
        </mxCell>
        <mxCell id="F9JthO-cuX8_xqFH1Uu4-20" value="" style="edgeStyle=orthogonalEdgeStyle;rounded=0;orthogonalLoop=1;jettySize=auto;html=1;" edge="1" parent="1" target="F9JthO-cuX8_xqFH1Uu4-22">
          <mxGeometry relative="1" as="geometry">
            <mxPoint x="414" y="540" as="sourcePoint" />
          </mxGeometry>
        </mxCell>
        <mxCell id="F9JthO-cuX8_xqFH1Uu4-21" value="" style="edgeStyle=orthogonalEdgeStyle;rounded=0;orthogonalLoop=1;jettySize=auto;html=1;" edge="1" parent="1" source="F9JthO-cuX8_xqFH1Uu4-22" target="F9JthO-cuX8_xqFH1Uu4-23">
          <mxGeometry relative="1" as="geometry" />
        </mxCell>
        <mxCell id="F9JthO-cuX8_xqFH1Uu4-22" value="num เท่ากับ 5" style="rhombus;whiteSpace=wrap;html=1;" vertex="1" parent="1">
          <mxGeometry x="348.5" y="580" width="131" height="60" as="geometry" />
        </mxCell>
        <mxCell id="F9JthO-cuX8_xqFH1Uu4-23" value="แสดง Five" style="rounded=0;whiteSpace=wrap;html=1;" vertex="1" parent="1">
          <mxGeometry x="510" y="590" width="110" height="40" as="geometry" />
        </mxCell>
        <mxCell id="F9JthO-cuX8_xqFH1Uu4-24" value="" style="edgeStyle=orthogonalEdgeStyle;rounded=0;orthogonalLoop=1;jettySize=auto;html=1;" edge="1" parent="1" target="F9JthO-cuX8_xqFH1Uu4-26">
          <mxGeometry relative="1" as="geometry">
            <mxPoint x="414" y="640" as="sourcePoint" />
          </mxGeometry>
        </mxCell>
        <mxCell id="F9JthO-cuX8_xqFH1Uu4-25" value="" style="edgeStyle=orthogonalEdgeStyle;rounded=0;orthogonalLoop=1;jettySize=auto;html=1;" edge="1" parent="1" source="F9JthO-cuX8_xqFH1Uu4-26" target="F9JthO-cuX8_xqFH1Uu4-27">
          <mxGeometry relative="1" as="geometry" />
        </mxCell>
        <mxCell id="F9JthO-cuX8_xqFH1Uu4-26" value="num เท่ากับ 6" style="rhombus;whiteSpace=wrap;html=1;" vertex="1" parent="1">
          <mxGeometry x="348.5" y="680" width="131" height="60" as="geometry" />
        </mxCell>
        <mxCell id="F9JthO-cuX8_xqFH1Uu4-27" value="แสดง Six" style="rounded=0;whiteSpace=wrap;html=1;" vertex="1" parent="1">
          <mxGeometry x="510" y="690" width="110" height="40" as="geometry" />
        </mxCell>
        <mxCell id="F9JthO-cuX8_xqFH1Uu4-52" value="" style="edgeStyle=orthogonalEdgeStyle;rounded=0;orthogonalLoop=1;jettySize=auto;html=1;" edge="1" parent="1" target="F9JthO-cuX8_xqFH1Uu4-54">
          <mxGeometry relative="1" as="geometry">
            <mxPoint x="414" y="740" as="sourcePoint" />
          </mxGeometry>
        </mxCell>
        <mxCell id="F9JthO-cuX8_xqFH1Uu4-53" value="" style="edgeStyle=orthogonalEdgeStyle;rounded=0;orthogonalLoop=1;jettySize=auto;html=1;" edge="1" parent="1" source="F9JthO-cuX8_xqFH1Uu4-54" target="F9JthO-cuX8_xqFH1Uu4-55">
          <mxGeometry relative="1" as="geometry" />
        </mxCell>
        <mxCell id="F9JthO-cuX8_xqFH1Uu4-54" value="num เท่ากับ 7" style="rhombus;whiteSpace=wrap;html=1;" vertex="1" parent="1">
          <mxGeometry x="348.5" y="780" width="131" height="60" as="geometry" />
        </mxCell>
        <mxCell id="F9JthO-cuX8_xqFH1Uu4-55" value="แสดง Seven" style="rounded=0;whiteSpace=wrap;html=1;" vertex="1" parent="1">
          <mxGeometry x="510" y="790" width="110" height="40" as="geometry" />
        </mxCell>
        <mxCell id="F9JthO-cuX8_xqFH1Uu4-56" value="" style="edgeStyle=orthogonalEdgeStyle;rounded=0;orthogonalLoop=1;jettySize=auto;html=1;" edge="1" parent="1" target="F9JthO-cuX8_xqFH1Uu4-58">
          <mxGeometry relative="1" as="geometry">
            <mxPoint x="414" y="840" as="sourcePoint" />
          </mxGeometry>
        </mxCell>
        <mxCell id="F9JthO-cuX8_xqFH1Uu4-57" value="" style="edgeStyle=orthogonalEdgeStyle;rounded=0;orthogonalLoop=1;jettySize=auto;html=1;" edge="1" parent="1" source="F9JthO-cuX8_xqFH1Uu4-58" target="F9JthO-cuX8_xqFH1Uu4-59">
          <mxGeometry relative="1" as="geometry" />
        </mxCell>
        <mxCell id="F9JthO-cuX8_xqFH1Uu4-58" value="num เท่ากับ 8" style="rhombus;whiteSpace=wrap;html=1;" vertex="1" parent="1">
          <mxGeometry x="348.5" y="880" width="131" height="60" as="geometry" />
        </mxCell>
        <mxCell id="F9JthO-cuX8_xqFH1Uu4-59" value="แสดง Eight" style="rounded=0;whiteSpace=wrap;html=1;" vertex="1" parent="1">
          <mxGeometry x="510" y="890" width="110" height="40" as="geometry" />
        </mxCell>
        <mxCell id="F9JthO-cuX8_xqFH1Uu4-60" value="" style="edgeStyle=orthogonalEdgeStyle;rounded=0;orthogonalLoop=1;jettySize=auto;html=1;" edge="1" parent="1" target="F9JthO-cuX8_xqFH1Uu4-62">
          <mxGeometry relative="1" as="geometry">
            <mxPoint x="414" y="940" as="sourcePoint" />
          </mxGeometry>
        </mxCell>
        <mxCell id="F9JthO-cuX8_xqFH1Uu4-61" value="" style="edgeStyle=orthogonalEdgeStyle;rounded=0;orthogonalLoop=1;jettySize=auto;html=1;" edge="1" parent="1" source="F9JthO-cuX8_xqFH1Uu4-62" target="F9JthO-cuX8_xqFH1Uu4-63">
          <mxGeometry relative="1" as="geometry" />
        </mxCell>
        <mxCell id="F9JthO-cuX8_xqFH1Uu4-62" value="num เท่ากับ 9" style="rhombus;whiteSpace=wrap;html=1;" vertex="1" parent="1">
          <mxGeometry x="348.5" y="980" width="131" height="60" as="geometry" />
        </mxCell>
        <mxCell id="F9JthO-cuX8_xqFH1Uu4-63" value="แสดง Nine" style="rounded=0;whiteSpace=wrap;html=1;" vertex="1" parent="1">
          <mxGeometry x="510" y="990" width="110" height="40" as="geometry" />
        </mxCell>
        <mxCell id="F9JthO-cuX8_xqFH1Uu4-64" value="" style="edgeStyle=orthogonalEdgeStyle;rounded=0;orthogonalLoop=1;jettySize=auto;html=1;" edge="1" parent="1" target="F9JthO-cuX8_xqFH1Uu4-66">
          <mxGeometry relative="1" as="geometry">
            <mxPoint x="414" y="1040" as="sourcePoint" />
          </mxGeometry>
        </mxCell>
        <mxCell id="F9JthO-cuX8_xqFH1Uu4-65" value="" style="edgeStyle=orthogonalEdgeStyle;rounded=0;orthogonalLoop=1;jettySize=auto;html=1;" edge="1" parent="1" source="F9JthO-cuX8_xqFH1Uu4-66" target="F9JthO-cuX8_xqFH1Uu4-67">
          <mxGeometry relative="1" as="geometry" />
        </mxCell>
        <mxCell id="F9JthO-cuX8_xqFH1Uu4-66" value="num เท่ากับ 10" style="rhombus;whiteSpace=wrap;html=1;" vertex="1" parent="1">
          <mxGeometry x="348.5" y="1080" width="131" height="60" as="geometry" />
        </mxCell>
        <mxCell id="F9JthO-cuX8_xqFH1Uu4-67" value="แสดง Ten" style="rounded=0;whiteSpace=wrap;html=1;" vertex="1" parent="1">
          <mxGeometry x="510" y="1090" width="110" height="40" as="geometry" />
        </mxCell>
        <mxCell id="F9JthO-cuX8_xqFH1Uu4-68" value="" style="edgeStyle=orthogonalEdgeStyle;rounded=0;orthogonalLoop=1;jettySize=auto;html=1;" edge="1" parent="1" target="F9JthO-cuX8_xqFH1Uu4-70">
          <mxGeometry relative="1" as="geometry">
            <mxPoint x="414" y="1140" as="sourcePoint" />
          </mxGeometry>
        </mxCell>
        <mxCell id="F9JthO-cuX8_xqFH1Uu4-69" value="" style="edgeStyle=orthogonalEdgeStyle;rounded=0;orthogonalLoop=1;jettySize=auto;html=1;" edge="1" parent="1" source="F9JthO-cuX8_xqFH1Uu4-70" target="F9JthO-cuX8_xqFH1Uu4-71">
          <mxGeometry relative="1" as="geometry" />
        </mxCell>
        <mxCell id="F9JthO-cuX8_xqFH1Uu4-70" value="num เท่ากับ 11" style="rhombus;whiteSpace=wrap;html=1;" vertex="1" parent="1">
          <mxGeometry x="348.5" y="1180" width="131" height="60" as="geometry" />
        </mxCell>
        <mxCell id="F9JthO-cuX8_xqFH1Uu4-71" value="แสดง Eleven" style="rounded=0;whiteSpace=wrap;html=1;" vertex="1" parent="1">
          <mxGeometry x="510" y="1190" width="110" height="40" as="geometry" />
        </mxCell>
        <mxCell id="F9JthO-cuX8_xqFH1Uu4-72" value="" style="edgeStyle=orthogonalEdgeStyle;rounded=0;orthogonalLoop=1;jettySize=auto;html=1;" edge="1" parent="1" target="F9JthO-cuX8_xqFH1Uu4-74">
          <mxGeometry relative="1" as="geometry">
            <mxPoint x="414" y="1240" as="sourcePoint" />
          </mxGeometry>
        </mxCell>
        <mxCell id="F9JthO-cuX8_xqFH1Uu4-73" value="" style="edgeStyle=orthogonalEdgeStyle;rounded=0;orthogonalLoop=1;jettySize=auto;html=1;" edge="1" parent="1" source="F9JthO-cuX8_xqFH1Uu4-74" target="F9JthO-cuX8_xqFH1Uu4-75">
          <mxGeometry relative="1" as="geometry" />
        </mxCell>
        <mxCell id="F9JthO-cuX8_xqFH1Uu4-74" value="num เท่ากับ 12" style="rhombus;whiteSpace=wrap;html=1;" vertex="1" parent="1">
          <mxGeometry x="348.5" y="1280" width="131" height="60" as="geometry" />
        </mxCell>
        <mxCell id="F9JthO-cuX8_xqFH1Uu4-75" value="แสดง Twelve" style="rounded=0;whiteSpace=wrap;html=1;" vertex="1" parent="1">
          <mxGeometry x="510" y="1290" width="110" height="40" as="geometry" />
        </mxCell>
        <mxCell id="F9JthO-cuX8_xqFH1Uu4-76" value="" style="edgeStyle=orthogonalEdgeStyle;rounded=0;orthogonalLoop=1;jettySize=auto;html=1;" edge="1" parent="1" target="F9JthO-cuX8_xqFH1Uu4-78">
          <mxGeometry relative="1" as="geometry">
            <mxPoint x="414" y="1340" as="sourcePoint" />
          </mxGeometry>
        </mxCell>
        <mxCell id="F9JthO-cuX8_xqFH1Uu4-77" value="" style="edgeStyle=orthogonalEdgeStyle;rounded=0;orthogonalLoop=1;jettySize=auto;html=1;" edge="1" parent="1" source="F9JthO-cuX8_xqFH1Uu4-78" target="F9JthO-cuX8_xqFH1Uu4-79">
          <mxGeometry relative="1" as="geometry" />
        </mxCell>
        <mxCell id="F9JthO-cuX8_xqFH1Uu4-78" value="num เท่ากับ 13" style="rhombus;whiteSpace=wrap;html=1;" vertex="1" parent="1">
          <mxGeometry x="348.5" y="1380" width="131" height="60" as="geometry" />
        </mxCell>
        <mxCell id="F9JthO-cuX8_xqFH1Uu4-79" value="แสดง Thirteen" style="rounded=0;whiteSpace=wrap;html=1;" vertex="1" parent="1">
          <mxGeometry x="510" y="1390" width="110" height="40" as="geometry" />
        </mxCell>
        <mxCell id="F9JthO-cuX8_xqFH1Uu4-80" value="" style="edgeStyle=orthogonalEdgeStyle;rounded=0;orthogonalLoop=1;jettySize=auto;html=1;" edge="1" parent="1" target="F9JthO-cuX8_xqFH1Uu4-82">
          <mxGeometry relative="1" as="geometry">
            <mxPoint x="414" y="1440" as="sourcePoint" />
          </mxGeometry>
        </mxCell>
        <mxCell id="F9JthO-cuX8_xqFH1Uu4-81" value="" style="edgeStyle=orthogonalEdgeStyle;rounded=0;orthogonalLoop=1;jettySize=auto;html=1;" edge="1" parent="1" source="F9JthO-cuX8_xqFH1Uu4-82" target="F9JthO-cuX8_xqFH1Uu4-83">
          <mxGeometry relative="1" as="geometry" />
        </mxCell>
        <mxCell id="F9JthO-cuX8_xqFH1Uu4-82" value="num เท่ากับ 14" style="rhombus;whiteSpace=wrap;html=1;" vertex="1" parent="1">
          <mxGeometry x="348.5" y="1480" width="131" height="60" as="geometry" />
        </mxCell>
        <mxCell id="F9JthO-cuX8_xqFH1Uu4-83" value="แสดง Fourteen" style="rounded=0;whiteSpace=wrap;html=1;" vertex="1" parent="1">
          <mxGeometry x="510" y="1490" width="110" height="40" as="geometry" />
        </mxCell>
        <mxCell id="F9JthO-cuX8_xqFH1Uu4-84" value="" style="edgeStyle=orthogonalEdgeStyle;rounded=0;orthogonalLoop=1;jettySize=auto;html=1;" edge="1" parent="1" target="F9JthO-cuX8_xqFH1Uu4-86">
          <mxGeometry relative="1" as="geometry">
            <mxPoint x="414" y="1540" as="sourcePoint" />
          </mxGeometry>
        </mxCell>
        <mxCell id="F9JthO-cuX8_xqFH1Uu4-85" value="" style="edgeStyle=orthogonalEdgeStyle;rounded=0;orthogonalLoop=1;jettySize=auto;html=1;" edge="1" parent="1" source="F9JthO-cuX8_xqFH1Uu4-86" target="F9JthO-cuX8_xqFH1Uu4-87">
          <mxGeometry relative="1" as="geometry" />
        </mxCell>
        <mxCell id="F9JthO-cuX8_xqFH1Uu4-86" value="num เท่ากับ 15" style="rhombus;whiteSpace=wrap;html=1;" vertex="1" parent="1">
          <mxGeometry x="348.5" y="1580" width="131" height="60" as="geometry" />
        </mxCell>
        <mxCell id="F9JthO-cuX8_xqFH1Uu4-87" value="แสดง Fifteen" style="rounded=0;whiteSpace=wrap;html=1;" vertex="1" parent="1">
          <mxGeometry x="510" y="1590" width="110" height="40" as="geometry" />
        </mxCell>
        <mxCell id="F9JthO-cuX8_xqFH1Uu4-88" value="" style="edgeStyle=orthogonalEdgeStyle;rounded=0;orthogonalLoop=1;jettySize=auto;html=1;" edge="1" parent="1" target="F9JthO-cuX8_xqFH1Uu4-90">
          <mxGeometry relative="1" as="geometry">
            <mxPoint x="414" y="1640" as="sourcePoint" />
          </mxGeometry>
        </mxCell>
        <mxCell id="F9JthO-cuX8_xqFH1Uu4-89" value="" style="edgeStyle=orthogonalEdgeStyle;rounded=0;orthogonalLoop=1;jettySize=auto;html=1;" edge="1" parent="1" source="F9JthO-cuX8_xqFH1Uu4-90" target="F9JthO-cuX8_xqFH1Uu4-91">
          <mxGeometry relative="1" as="geometry" />
        </mxCell>
        <mxCell id="F9JthO-cuX8_xqFH1Uu4-90" value="num เท่ากับ 16" style="rhombus;whiteSpace=wrap;html=1;" vertex="1" parent="1">
          <mxGeometry x="348.5" y="1680" width="131" height="60" as="geometry" />
        </mxCell>
        <mxCell id="F9JthO-cuX8_xqFH1Uu4-91" value="แสดง Sixteen" style="rounded=0;whiteSpace=wrap;html=1;" vertex="1" parent="1">
          <mxGeometry x="510" y="1690" width="110" height="40" as="geometry" />
        </mxCell>
        <mxCell id="F9JthO-cuX8_xqFH1Uu4-92" value="" style="edgeStyle=orthogonalEdgeStyle;rounded=0;orthogonalLoop=1;jettySize=auto;html=1;" edge="1" parent="1" target="F9JthO-cuX8_xqFH1Uu4-94">
          <mxGeometry relative="1" as="geometry">
            <mxPoint x="414" y="1740" as="sourcePoint" />
          </mxGeometry>
        </mxCell>
        <mxCell id="F9JthO-cuX8_xqFH1Uu4-93" value="" style="edgeStyle=orthogonalEdgeStyle;rounded=0;orthogonalLoop=1;jettySize=auto;html=1;" edge="1" parent="1" source="F9JthO-cuX8_xqFH1Uu4-94" target="F9JthO-cuX8_xqFH1Uu4-95">
          <mxGeometry relative="1" as="geometry" />
        </mxCell>
        <mxCell id="F9JthO-cuX8_xqFH1Uu4-94" value="num เท่ากับ 17" style="rhombus;whiteSpace=wrap;html=1;" vertex="1" parent="1">
          <mxGeometry x="348.5" y="1780" width="131" height="60" as="geometry" />
        </mxCell>
        <mxCell id="F9JthO-cuX8_xqFH1Uu4-95" value="แสดง Seventeen" style="rounded=0;whiteSpace=wrap;html=1;" vertex="1" parent="1">
          <mxGeometry x="510" y="1790" width="110" height="40" as="geometry" />
        </mxCell>
        <mxCell id="F9JthO-cuX8_xqFH1Uu4-96" value="" style="edgeStyle=orthogonalEdgeStyle;rounded=0;orthogonalLoop=1;jettySize=auto;html=1;" edge="1" parent="1" target="F9JthO-cuX8_xqFH1Uu4-98">
          <mxGeometry relative="1" as="geometry">
            <mxPoint x="414" y="1840" as="sourcePoint" />
          </mxGeometry>
        </mxCell>
        <mxCell id="F9JthO-cuX8_xqFH1Uu4-97" value="" style="edgeStyle=orthogonalEdgeStyle;rounded=0;orthogonalLoop=1;jettySize=auto;html=1;" edge="1" parent="1" source="F9JthO-cuX8_xqFH1Uu4-98" target="F9JthO-cuX8_xqFH1Uu4-99">
          <mxGeometry relative="1" as="geometry" />
        </mxCell>
        <mxCell id="F9JthO-cuX8_xqFH1Uu4-98" value="num เท่ากับ 18" style="rhombus;whiteSpace=wrap;html=1;" vertex="1" parent="1">
          <mxGeometry x="348.5" y="1880" width="131" height="60" as="geometry" />
        </mxCell>
        <mxCell id="F9JthO-cuX8_xqFH1Uu4-99" value="แสดง Eighteen" style="rounded=0;whiteSpace=wrap;html=1;" vertex="1" parent="1">
          <mxGeometry x="510" y="1890" width="110" height="40" as="geometry" />
        </mxCell>
        <mxCell id="F9JthO-cuX8_xqFH1Uu4-100" value="" style="edgeStyle=orthogonalEdgeStyle;rounded=0;orthogonalLoop=1;jettySize=auto;html=1;" edge="1" parent="1" target="F9JthO-cuX8_xqFH1Uu4-102">
          <mxGeometry relative="1" as="geometry">
            <mxPoint x="414" y="1940" as="sourcePoint" />
          </mxGeometry>
        </mxCell>
        <mxCell id="F9JthO-cuX8_xqFH1Uu4-101" value="" style="edgeStyle=orthogonalEdgeStyle;rounded=0;orthogonalLoop=1;jettySize=auto;html=1;" edge="1" parent="1" source="F9JthO-cuX8_xqFH1Uu4-102" target="F9JthO-cuX8_xqFH1Uu4-103">
          <mxGeometry relative="1" as="geometry" />
        </mxCell>
        <mxCell id="F9JthO-cuX8_xqFH1Uu4-102" value="num เท่ากับ 19" style="rhombus;whiteSpace=wrap;html=1;" vertex="1" parent="1">
          <mxGeometry x="348.5" y="1980" width="131" height="60" as="geometry" />
        </mxCell>
        <mxCell id="F9JthO-cuX8_xqFH1Uu4-103" value="แสดง Nineteen" style="rounded=0;whiteSpace=wrap;html=1;" vertex="1" parent="1">
          <mxGeometry x="510" y="1990" width="110" height="40" as="geometry" />
        </mxCell>
        <mxCell id="F9JthO-cuX8_xqFH1Uu4-104" value="" style="edgeStyle=orthogonalEdgeStyle;rounded=0;orthogonalLoop=1;jettySize=auto;html=1;" edge="1" parent="1" target="F9JthO-cuX8_xqFH1Uu4-106">
          <mxGeometry relative="1" as="geometry">
            <mxPoint x="414" y="2040" as="sourcePoint" />
          </mxGeometry>
        </mxCell>
        <mxCell id="F9JthO-cuX8_xqFH1Uu4-105" value="" style="edgeStyle=orthogonalEdgeStyle;rounded=0;orthogonalLoop=1;jettySize=auto;html=1;" edge="1" parent="1" source="F9JthO-cuX8_xqFH1Uu4-106" target="F9JthO-cuX8_xqFH1Uu4-107">
          <mxGeometry relative="1" as="geometry" />
        </mxCell>
        <mxCell id="F9JthO-cuX8_xqFH1Uu4-106" value="num เท่ากับ 20" style="rhombus;whiteSpace=wrap;html=1;" vertex="1" parent="1">
          <mxGeometry x="348.5" y="2080" width="131" height="60" as="geometry" />
        </mxCell>
        <mxCell id="F9JthO-cuX8_xqFH1Uu4-107" value="แสดง Twenty" style="rounded=0;whiteSpace=wrap;html=1;" vertex="1" parent="1">
          <mxGeometry x="510" y="2090" width="110" height="40" as="geometry" />
        </mxCell>
        <mxCell id="F9JthO-cuX8_xqFH1Uu4-108" value="" style="edgeStyle=orthogonalEdgeStyle;rounded=0;orthogonalLoop=1;jettySize=auto;html=1;" edge="1" parent="1" target="F9JthO-cuX8_xqFH1Uu4-110">
          <mxGeometry relative="1" as="geometry">
            <mxPoint x="414" y="2140" as="sourcePoint" />
          </mxGeometry>
        </mxCell>
        <mxCell id="F9JthO-cuX8_xqFH1Uu4-109" value="" style="edgeStyle=orthogonalEdgeStyle;rounded=0;orthogonalLoop=1;jettySize=auto;html=1;" edge="1" parent="1" source="F9JthO-cuX8_xqFH1Uu4-110" target="F9JthO-cuX8_xqFH1Uu4-111">
          <mxGeometry relative="1" as="geometry" />
        </mxCell>
        <mxCell id="F9JthO-cuX8_xqFH1Uu4-110" value="num เท่ากับ 21" style="rhombus;whiteSpace=wrap;html=1;" vertex="1" parent="1">
          <mxGeometry x="348.5" y="2180" width="131" height="60" as="geometry" />
        </mxCell>
        <mxCell id="F9JthO-cuX8_xqFH1Uu4-111" value="แสดง Twenty One" style="rounded=0;whiteSpace=wrap;html=1;" vertex="1" parent="1">
          <mxGeometry x="510" y="2190" width="110" height="40" as="geometry" />
        </mxCell>
        <mxCell id="F9JthO-cuX8_xqFH1Uu4-112" value="" style="edgeStyle=orthogonalEdgeStyle;rounded=0;orthogonalLoop=1;jettySize=auto;html=1;" edge="1" parent="1" target="F9JthO-cuX8_xqFH1Uu4-114">
          <mxGeometry relative="1" as="geometry">
            <mxPoint x="414" y="2240" as="sourcePoint" />
          </mxGeometry>
        </mxCell>
        <mxCell id="F9JthO-cuX8_xqFH1Uu4-113" value="" style="edgeStyle=orthogonalEdgeStyle;rounded=0;orthogonalLoop=1;jettySize=auto;html=1;" edge="1" parent="1" source="F9JthO-cuX8_xqFH1Uu4-114" target="F9JthO-cuX8_xqFH1Uu4-115">
          <mxGeometry relative="1" as="geometry" />
        </mxCell>
        <mxCell id="F9JthO-cuX8_xqFH1Uu4-114" value="num เท่ากับ 22" style="rhombus;whiteSpace=wrap;html=1;" vertex="1" parent="1">
          <mxGeometry x="348.5" y="2280" width="131" height="60" as="geometry" />
        </mxCell>
        <mxCell id="F9JthO-cuX8_xqFH1Uu4-115" value="แสดง Twenty Two" style="rounded=0;whiteSpace=wrap;html=1;" vertex="1" parent="1">
          <mxGeometry x="510" y="2290" width="110" height="40" as="geometry" />
        </mxCell>
        <mxCell id="F9JthO-cuX8_xqFH1Uu4-116" value="" style="edgeStyle=orthogonalEdgeStyle;rounded=0;orthogonalLoop=1;jettySize=auto;html=1;" edge="1" parent="1" target="F9JthO-cuX8_xqFH1Uu4-118">
          <mxGeometry relative="1" as="geometry">
            <mxPoint x="414" y="2340" as="sourcePoint" />
          </mxGeometry>
        </mxCell>
        <mxCell id="F9JthO-cuX8_xqFH1Uu4-117" value="" style="edgeStyle=orthogonalEdgeStyle;rounded=0;orthogonalLoop=1;jettySize=auto;html=1;" edge="1" parent="1" source="F9JthO-cuX8_xqFH1Uu4-118" target="F9JthO-cuX8_xqFH1Uu4-119">
          <mxGeometry relative="1" as="geometry" />
        </mxCell>
        <mxCell id="F9JthO-cuX8_xqFH1Uu4-118" value="num เท่ากับ 23" style="rhombus;whiteSpace=wrap;html=1;" vertex="1" parent="1">
          <mxGeometry x="348.5" y="2380" width="131" height="60" as="geometry" />
        </mxCell>
        <mxCell id="F9JthO-cuX8_xqFH1Uu4-119" value="แสดง Twenty Three" style="rounded=0;whiteSpace=wrap;html=1;" vertex="1" parent="1">
          <mxGeometry x="510" y="2390" width="110" height="40" as="geometry" />
        </mxCell>
        <mxCell id="F9JthO-cuX8_xqFH1Uu4-120" value="" style="edgeStyle=orthogonalEdgeStyle;rounded=0;orthogonalLoop=1;jettySize=auto;html=1;" edge="1" parent="1" target="F9JthO-cuX8_xqFH1Uu4-122">
          <mxGeometry relative="1" as="geometry">
            <mxPoint x="414" y="2440" as="sourcePoint" />
          </mxGeometry>
        </mxCell>
        <mxCell id="F9JthO-cuX8_xqFH1Uu4-121" value="" style="edgeStyle=orthogonalEdgeStyle;rounded=0;orthogonalLoop=1;jettySize=auto;html=1;" edge="1" parent="1" source="F9JthO-cuX8_xqFH1Uu4-122" target="F9JthO-cuX8_xqFH1Uu4-123">
          <mxGeometry relative="1" as="geometry" />
        </mxCell>
        <mxCell id="F9JthO-cuX8_xqFH1Uu4-122" value="num เท่ากับ 24" style="rhombus;whiteSpace=wrap;html=1;" vertex="1" parent="1">
          <mxGeometry x="348.5" y="2480" width="131" height="60" as="geometry" />
        </mxCell>
        <mxCell id="F9JthO-cuX8_xqFH1Uu4-123" value="แสดง Twenty Four" style="rounded=0;whiteSpace=wrap;html=1;" vertex="1" parent="1">
          <mxGeometry x="510" y="2490" width="110" height="40" as="geometry" />
        </mxCell>
        <mxCell id="F9JthO-cuX8_xqFH1Uu4-124" value="" style="edgeStyle=orthogonalEdgeStyle;rounded=0;orthogonalLoop=1;jettySize=auto;html=1;" edge="1" parent="1" target="F9JthO-cuX8_xqFH1Uu4-126">
          <mxGeometry relative="1" as="geometry">
            <mxPoint x="414" y="2540" as="sourcePoint" />
          </mxGeometry>
        </mxCell>
        <mxCell id="F9JthO-cuX8_xqFH1Uu4-125" value="" style="edgeStyle=orthogonalEdgeStyle;rounded=0;orthogonalLoop=1;jettySize=auto;html=1;" edge="1" parent="1" source="F9JthO-cuX8_xqFH1Uu4-126" target="F9JthO-cuX8_xqFH1Uu4-127">
          <mxGeometry relative="1" as="geometry" />
        </mxCell>
        <mxCell id="F9JthO-cuX8_xqFH1Uu4-126" value="num เท่ากับ 25" style="rhombus;whiteSpace=wrap;html=1;" vertex="1" parent="1">
          <mxGeometry x="348.5" y="2580" width="131" height="60" as="geometry" />
        </mxCell>
        <mxCell id="F9JthO-cuX8_xqFH1Uu4-127" value="แสดง Twenty Five" style="rounded=0;whiteSpace=wrap;html=1;" vertex="1" parent="1">
          <mxGeometry x="510" y="2590" width="110" height="40" as="geometry" />
        </mxCell>
        <mxCell id="F9JthO-cuX8_xqFH1Uu4-128" value="" style="edgeStyle=orthogonalEdgeStyle;rounded=0;orthogonalLoop=1;jettySize=auto;html=1;" edge="1" parent="1" target="F9JthO-cuX8_xqFH1Uu4-130">
          <mxGeometry relative="1" as="geometry">
            <mxPoint x="414" y="2640" as="sourcePoint" />
          </mxGeometry>
        </mxCell>
        <mxCell id="F9JthO-cuX8_xqFH1Uu4-129" value="" style="edgeStyle=orthogonalEdgeStyle;rounded=0;orthogonalLoop=1;jettySize=auto;html=1;" edge="1" parent="1" source="F9JthO-cuX8_xqFH1Uu4-130" target="F9JthO-cuX8_xqFH1Uu4-131">
          <mxGeometry relative="1" as="geometry" />
        </mxCell>
        <mxCell id="F9JthO-cuX8_xqFH1Uu4-130" value="num เท่ากับ 26" style="rhombus;whiteSpace=wrap;html=1;" vertex="1" parent="1">
          <mxGeometry x="348.5" y="2680" width="131" height="60" as="geometry" />
        </mxCell>
        <mxCell id="F9JthO-cuX8_xqFH1Uu4-131" value="แสดง Twenty Six" style="rounded=0;whiteSpace=wrap;html=1;" vertex="1" parent="1">
          <mxGeometry x="510" y="2690" width="110" height="40" as="geometry" />
        </mxCell>
        <mxCell id="F9JthO-cuX8_xqFH1Uu4-132" value="" style="edgeStyle=orthogonalEdgeStyle;rounded=0;orthogonalLoop=1;jettySize=auto;html=1;" edge="1" parent="1" target="F9JthO-cuX8_xqFH1Uu4-134">
          <mxGeometry relative="1" as="geometry">
            <mxPoint x="414" y="2740" as="sourcePoint" />
          </mxGeometry>
        </mxCell>
        <mxCell id="F9JthO-cuX8_xqFH1Uu4-133" value="" style="edgeStyle=orthogonalEdgeStyle;rounded=0;orthogonalLoop=1;jettySize=auto;html=1;" edge="1" parent="1" source="F9JthO-cuX8_xqFH1Uu4-134" target="F9JthO-cuX8_xqFH1Uu4-135">
          <mxGeometry relative="1" as="geometry" />
        </mxCell>
        <mxCell id="F9JthO-cuX8_xqFH1Uu4-134" value="num เท่ากับ 27" style="rhombus;whiteSpace=wrap;html=1;" vertex="1" parent="1">
          <mxGeometry x="348.5" y="2780" width="131" height="60" as="geometry" />
        </mxCell>
        <mxCell id="F9JthO-cuX8_xqFH1Uu4-135" value="แสดง Twenty Seven" style="rounded=0;whiteSpace=wrap;html=1;" vertex="1" parent="1">
          <mxGeometry x="510" y="2790" width="110" height="40" as="geometry" />
        </mxCell>
        <mxCell id="F9JthO-cuX8_xqFH1Uu4-136" value="" style="edgeStyle=orthogonalEdgeStyle;rounded=0;orthogonalLoop=1;jettySize=auto;html=1;" edge="1" parent="1" target="F9JthO-cuX8_xqFH1Uu4-138">
          <mxGeometry relative="1" as="geometry">
            <mxPoint x="414" y="2840" as="sourcePoint" />
          </mxGeometry>
        </mxCell>
        <mxCell id="F9JthO-cuX8_xqFH1Uu4-137" value="" style="edgeStyle=orthogonalEdgeStyle;rounded=0;orthogonalLoop=1;jettySize=auto;html=1;" edge="1" parent="1" source="F9JthO-cuX8_xqFH1Uu4-138" target="F9JthO-cuX8_xqFH1Uu4-139">
          <mxGeometry relative="1" as="geometry" />
        </mxCell>
        <mxCell id="F9JthO-cuX8_xqFH1Uu4-138" value="num เท่ากับ 28" style="rhombus;whiteSpace=wrap;html=1;" vertex="1" parent="1">
          <mxGeometry x="348.5" y="2880" width="131" height="60" as="geometry" />
        </mxCell>
        <mxCell id="F9JthO-cuX8_xqFH1Uu4-139" value="แสดง Twenty Eight" style="rounded=0;whiteSpace=wrap;html=1;" vertex="1" parent="1">
          <mxGeometry x="510" y="2890" width="110" height="40" as="geometry" />
        </mxCell>
        <mxCell id="F9JthO-cuX8_xqFH1Uu4-140" value="" style="edgeStyle=orthogonalEdgeStyle;rounded=0;orthogonalLoop=1;jettySize=auto;html=1;" edge="1" parent="1" target="F9JthO-cuX8_xqFH1Uu4-142">
          <mxGeometry relative="1" as="geometry">
            <mxPoint x="414" y="2940" as="sourcePoint" />
          </mxGeometry>
        </mxCell>
        <mxCell id="F9JthO-cuX8_xqFH1Uu4-141" value="" style="edgeStyle=orthogonalEdgeStyle;rounded=0;orthogonalLoop=1;jettySize=auto;html=1;" edge="1" parent="1" source="F9JthO-cuX8_xqFH1Uu4-142" target="F9JthO-cuX8_xqFH1Uu4-143">
          <mxGeometry relative="1" as="geometry" />
        </mxCell>
        <mxCell id="F9JthO-cuX8_xqFH1Uu4-142" value="num เท่ากับ 29" style="rhombus;whiteSpace=wrap;html=1;" vertex="1" parent="1">
          <mxGeometry x="348.5" y="2980" width="131" height="60" as="geometry" />
        </mxCell>
        <mxCell id="F9JthO-cuX8_xqFH1Uu4-143" value="แสดง Twenty Nine" style="rounded=0;whiteSpace=wrap;html=1;" vertex="1" parent="1">
          <mxGeometry x="510" y="2990" width="110" height="40" as="geometry" />
        </mxCell>
        <mxCell id="F9JthO-cuX8_xqFH1Uu4-149" value="" style="edgeStyle=orthogonalEdgeStyle;rounded=0;orthogonalLoop=1;jettySize=auto;html=1;" edge="1" parent="1" source="F9JthO-cuX8_xqFH1Uu4-147" target="F9JthO-cuX8_xqFH1Uu4-148">
          <mxGeometry relative="1" as="geometry" />
        </mxCell>
        <mxCell id="F9JthO-cuX8_xqFH1Uu4-147" value="แสดง pelase enter 0 -30" style="rounded=0;whiteSpace=wrap;html=1;" vertex="1" parent="1">
          <mxGeometry x="356.5" y="3270" width="133.5" height="40" as="geometry" />
        </mxCell>
        <mxCell id="F9JthO-cuX8_xqFH1Uu4-148" value="จบ" style="ellipse;whiteSpace=wrap;html=1;" vertex="1" parent="1">
          <mxGeometry x="354" y="3360" width="120" height="40" as="geometry" />
        </mxCell>
        <mxCell id="F9JthO-cuX8_xqFH1Uu4-150" value="&lt;div&gt;&lt;span style=&quot;background-color: initial;&quot;&gt;จริง&lt;/span&gt;&lt;/div&gt;" style="text;html=1;align=center;verticalAlign=middle;whiteSpace=wrap;rounded=0;" vertex="1" parent="1">
          <mxGeometry x="460" y="2980" width="60" height="30" as="geometry" />
        </mxCell>
        <mxCell id="F9JthO-cuX8_xqFH1Uu4-151" value="&lt;div&gt;&lt;span style=&quot;background-color: initial;&quot;&gt;จริง&lt;/span&gt;&lt;/div&gt;" style="text;html=1;align=center;verticalAlign=middle;whiteSpace=wrap;rounded=0;" vertex="1" parent="1">
          <mxGeometry x="460" y="2880" width="60" height="30" as="geometry" />
        </mxCell>
        <mxCell id="F9JthO-cuX8_xqFH1Uu4-152" value="&lt;div&gt;&lt;span style=&quot;background-color: initial;&quot;&gt;จริง&lt;/span&gt;&lt;/div&gt;" style="text;html=1;align=center;verticalAlign=middle;whiteSpace=wrap;rounded=0;" vertex="1" parent="1">
          <mxGeometry x="460" y="2780" width="60" height="30" as="geometry" />
        </mxCell>
        <mxCell id="F9JthO-cuX8_xqFH1Uu4-153" value="&lt;div&gt;&lt;span style=&quot;background-color: initial;&quot;&gt;จริง&lt;/span&gt;&lt;/div&gt;" style="text;html=1;align=center;verticalAlign=middle;whiteSpace=wrap;rounded=0;" vertex="1" parent="1">
          <mxGeometry x="460" y="2680" width="60" height="30" as="geometry" />
        </mxCell>
        <mxCell id="F9JthO-cuX8_xqFH1Uu4-154" value="&lt;div&gt;&lt;span style=&quot;background-color: initial;&quot;&gt;จริง&lt;/span&gt;&lt;/div&gt;" style="text;html=1;align=center;verticalAlign=middle;whiteSpace=wrap;rounded=0;" vertex="1" parent="1">
          <mxGeometry x="460" y="2580" width="60" height="30" as="geometry" />
        </mxCell>
        <mxCell id="F9JthO-cuX8_xqFH1Uu4-155" value="&lt;div&gt;&lt;span style=&quot;background-color: initial;&quot;&gt;จริง&lt;/span&gt;&lt;/div&gt;" style="text;html=1;align=center;verticalAlign=middle;whiteSpace=wrap;rounded=0;" vertex="1" parent="1">
          <mxGeometry x="460" y="2480" width="60" height="30" as="geometry" />
        </mxCell>
        <mxCell id="F9JthO-cuX8_xqFH1Uu4-156" value="&lt;div&gt;&lt;span style=&quot;background-color: initial;&quot;&gt;จริง&lt;/span&gt;&lt;/div&gt;" style="text;html=1;align=center;verticalAlign=middle;whiteSpace=wrap;rounded=0;" vertex="1" parent="1">
          <mxGeometry x="460" y="2380" width="60" height="30" as="geometry" />
        </mxCell>
        <mxCell id="F9JthO-cuX8_xqFH1Uu4-157" value="&lt;div&gt;&lt;span style=&quot;background-color: initial;&quot;&gt;จริง&lt;/span&gt;&lt;/div&gt;" style="text;html=1;align=center;verticalAlign=middle;whiteSpace=wrap;rounded=0;" vertex="1" parent="1">
          <mxGeometry x="460" y="2280" width="60" height="30" as="geometry" />
        </mxCell>
        <mxCell id="F9JthO-cuX8_xqFH1Uu4-158" value="&lt;div&gt;&lt;span style=&quot;background-color: initial;&quot;&gt;จริง&lt;/span&gt;&lt;/div&gt;" style="text;html=1;align=center;verticalAlign=middle;whiteSpace=wrap;rounded=0;" vertex="1" parent="1">
          <mxGeometry x="460" y="2180" width="60" height="30" as="geometry" />
        </mxCell>
        <mxCell id="F9JthO-cuX8_xqFH1Uu4-159" value="&lt;div&gt;&lt;span style=&quot;background-color: initial;&quot;&gt;จริง&lt;/span&gt;&lt;/div&gt;" style="text;html=1;align=center;verticalAlign=middle;whiteSpace=wrap;rounded=0;" vertex="1" parent="1">
          <mxGeometry x="460" y="2080" width="60" height="30" as="geometry" />
        </mxCell>
        <mxCell id="F9JthO-cuX8_xqFH1Uu4-160" value="&lt;div&gt;&lt;span style=&quot;background-color: initial;&quot;&gt;จริง&lt;/span&gt;&lt;/div&gt;" style="text;html=1;align=center;verticalAlign=middle;whiteSpace=wrap;rounded=0;" vertex="1" parent="1">
          <mxGeometry x="460" y="1980" width="60" height="30" as="geometry" />
        </mxCell>
        <mxCell id="F9JthO-cuX8_xqFH1Uu4-161" value="&lt;div&gt;&lt;span style=&quot;background-color: initial;&quot;&gt;จริง&lt;/span&gt;&lt;/div&gt;" style="text;html=1;align=center;verticalAlign=middle;whiteSpace=wrap;rounded=0;" vertex="1" parent="1">
          <mxGeometry x="460" y="1880" width="60" height="30" as="geometry" />
        </mxCell>
        <mxCell id="F9JthO-cuX8_xqFH1Uu4-162" value="&lt;div&gt;&lt;span style=&quot;background-color: initial;&quot;&gt;จริง&lt;/span&gt;&lt;/div&gt;" style="text;html=1;align=center;verticalAlign=middle;whiteSpace=wrap;rounded=0;" vertex="1" parent="1">
          <mxGeometry x="460" y="1780" width="60" height="30" as="geometry" />
        </mxCell>
        <mxCell id="F9JthO-cuX8_xqFH1Uu4-163" value="&lt;div&gt;&lt;span style=&quot;background-color: initial;&quot;&gt;จริง&lt;/span&gt;&lt;/div&gt;" style="text;html=1;align=center;verticalAlign=middle;whiteSpace=wrap;rounded=0;" vertex="1" parent="1">
          <mxGeometry x="460" y="1680" width="60" height="30" as="geometry" />
        </mxCell>
        <mxCell id="F9JthO-cuX8_xqFH1Uu4-164" value="&lt;div&gt;&lt;span style=&quot;background-color: initial;&quot;&gt;จริง&lt;/span&gt;&lt;/div&gt;" style="text;html=1;align=center;verticalAlign=middle;whiteSpace=wrap;rounded=0;" vertex="1" parent="1">
          <mxGeometry x="460" y="1580" width="60" height="30" as="geometry" />
        </mxCell>
        <mxCell id="F9JthO-cuX8_xqFH1Uu4-165" value="&lt;div&gt;&lt;span style=&quot;background-color: initial;&quot;&gt;จริง&lt;/span&gt;&lt;/div&gt;" style="text;html=1;align=center;verticalAlign=middle;whiteSpace=wrap;rounded=0;" vertex="1" parent="1">
          <mxGeometry x="460" y="1480" width="60" height="30" as="geometry" />
        </mxCell>
        <mxCell id="F9JthO-cuX8_xqFH1Uu4-166" value="&lt;div&gt;&lt;span style=&quot;background-color: initial;&quot;&gt;จริง&lt;/span&gt;&lt;/div&gt;" style="text;html=1;align=center;verticalAlign=middle;whiteSpace=wrap;rounded=0;" vertex="1" parent="1">
          <mxGeometry x="460" y="1380" width="60" height="30" as="geometry" />
        </mxCell>
        <mxCell id="F9JthO-cuX8_xqFH1Uu4-167" value="&lt;div&gt;&lt;span style=&quot;background-color: initial;&quot;&gt;จริง&lt;/span&gt;&lt;/div&gt;" style="text;html=1;align=center;verticalAlign=middle;whiteSpace=wrap;rounded=0;" vertex="1" parent="1">
          <mxGeometry x="460" y="1280" width="60" height="30" as="geometry" />
        </mxCell>
        <mxCell id="F9JthO-cuX8_xqFH1Uu4-168" value="&lt;div&gt;&lt;span style=&quot;background-color: initial;&quot;&gt;จริง&lt;/span&gt;&lt;/div&gt;" style="text;html=1;align=center;verticalAlign=middle;whiteSpace=wrap;rounded=0;" vertex="1" parent="1">
          <mxGeometry x="460" y="1180" width="60" height="30" as="geometry" />
        </mxCell>
        <mxCell id="F9JthO-cuX8_xqFH1Uu4-169" value="&lt;div&gt;&lt;span style=&quot;background-color: initial;&quot;&gt;จริง&lt;/span&gt;&lt;/div&gt;" style="text;html=1;align=center;verticalAlign=middle;whiteSpace=wrap;rounded=0;" vertex="1" parent="1">
          <mxGeometry x="460" y="1080" width="60" height="30" as="geometry" />
        </mxCell>
        <mxCell id="F9JthO-cuX8_xqFH1Uu4-170" value="&lt;div&gt;&lt;span style=&quot;background-color: initial;&quot;&gt;จริง&lt;/span&gt;&lt;/div&gt;" style="text;html=1;align=center;verticalAlign=middle;whiteSpace=wrap;rounded=0;" vertex="1" parent="1">
          <mxGeometry x="460" y="980" width="60" height="30" as="geometry" />
        </mxCell>
        <mxCell id="F9JthO-cuX8_xqFH1Uu4-171" value="&lt;div&gt;&lt;span style=&quot;background-color: initial;&quot;&gt;จริง&lt;/span&gt;&lt;/div&gt;" style="text;html=1;align=center;verticalAlign=middle;whiteSpace=wrap;rounded=0;" vertex="1" parent="1">
          <mxGeometry x="460" y="880" width="60" height="30" as="geometry" />
        </mxCell>
        <mxCell id="F9JthO-cuX8_xqFH1Uu4-172" value="&lt;div&gt;&lt;span style=&quot;background-color: initial;&quot;&gt;จริง&lt;/span&gt;&lt;/div&gt;" style="text;html=1;align=center;verticalAlign=middle;whiteSpace=wrap;rounded=0;" vertex="1" parent="1">
          <mxGeometry x="460" y="780" width="60" height="30" as="geometry" />
        </mxCell>
        <mxCell id="F9JthO-cuX8_xqFH1Uu4-173" value="&lt;div&gt;&lt;span style=&quot;background-color: initial;&quot;&gt;จริง&lt;/span&gt;&lt;/div&gt;" style="text;html=1;align=center;verticalAlign=middle;whiteSpace=wrap;rounded=0;" vertex="1" parent="1">
          <mxGeometry x="460" y="680" width="60" height="30" as="geometry" />
        </mxCell>
        <mxCell id="F9JthO-cuX8_xqFH1Uu4-174" value="&lt;div&gt;&lt;span style=&quot;background-color: initial;&quot;&gt;จริง&lt;/span&gt;&lt;/div&gt;" style="text;html=1;align=center;verticalAlign=middle;whiteSpace=wrap;rounded=0;" vertex="1" parent="1">
          <mxGeometry x="460" y="580" width="60" height="30" as="geometry" />
        </mxCell>
        <mxCell id="F9JthO-cuX8_xqFH1Uu4-175" value="&lt;div&gt;&lt;span style=&quot;background-color: initial;&quot;&gt;จริง&lt;/span&gt;&lt;/div&gt;" style="text;html=1;align=center;verticalAlign=middle;whiteSpace=wrap;rounded=0;" vertex="1" parent="1">
          <mxGeometry x="460" y="480" width="60" height="30" as="geometry" />
        </mxCell>
        <mxCell id="F9JthO-cuX8_xqFH1Uu4-176" value="&lt;div&gt;&lt;span style=&quot;background-color: initial;&quot;&gt;จริง&lt;/span&gt;&lt;/div&gt;" style="text;html=1;align=center;verticalAlign=middle;whiteSpace=wrap;rounded=0;" vertex="1" parent="1">
          <mxGeometry x="460" y="380" width="60" height="30" as="geometry" />
        </mxCell>
        <mxCell id="F9JthO-cuX8_xqFH1Uu4-177" value="&lt;div&gt;&lt;span style=&quot;background-color: initial;&quot;&gt;จริง&lt;/span&gt;&lt;/div&gt;" style="text;html=1;align=center;verticalAlign=middle;whiteSpace=wrap;rounded=0;" vertex="1" parent="1">
          <mxGeometry x="460" y="280" width="60" height="30" as="geometry" />
        </mxCell>
        <mxCell id="F9JthO-cuX8_xqFH1Uu4-178" value="&lt;div&gt;&lt;span style=&quot;background-color: initial;&quot;&gt;จริง&lt;/span&gt;&lt;/div&gt;" style="text;html=1;align=center;verticalAlign=middle;whiteSpace=wrap;rounded=0;" vertex="1" parent="1">
          <mxGeometry x="460" y="180" width="60" height="30" as="geometry" />
        </mxCell>
        <mxCell id="F9JthO-cuX8_xqFH1Uu4-179" value="&lt;div&gt;&lt;span style=&quot;background-color: initial;&quot;&gt;เท็จ&lt;/span&gt;&lt;/div&gt;" style="text;html=1;align=center;verticalAlign=middle;whiteSpace=wrap;rounded=0;" vertex="1" parent="1">
          <mxGeometry x="409" y="240" width="60" height="30" as="geometry" />
        </mxCell>
        <mxCell id="F9JthO-cuX8_xqFH1Uu4-180" value="&lt;div&gt;&lt;span style=&quot;background-color: initial;&quot;&gt;เท็จ&lt;/span&gt;&lt;/div&gt;" style="text;html=1;align=center;verticalAlign=middle;whiteSpace=wrap;rounded=0;" vertex="1" parent="1">
          <mxGeometry x="409" y="340" width="60" height="30" as="geometry" />
        </mxCell>
        <mxCell id="F9JthO-cuX8_xqFH1Uu4-181" value="&lt;div&gt;&lt;span style=&quot;background-color: initial;&quot;&gt;เท็จ&lt;/span&gt;&lt;/div&gt;" style="text;html=1;align=center;verticalAlign=middle;whiteSpace=wrap;rounded=0;" vertex="1" parent="1">
          <mxGeometry x="409" y="440" width="60" height="30" as="geometry" />
        </mxCell>
        <mxCell id="F9JthO-cuX8_xqFH1Uu4-182" value="&lt;div&gt;&lt;span style=&quot;background-color: initial;&quot;&gt;เท็จ&lt;/span&gt;&lt;/div&gt;" style="text;html=1;align=center;verticalAlign=middle;whiteSpace=wrap;rounded=0;" vertex="1" parent="1">
          <mxGeometry x="414" y="550" width="60" height="30" as="geometry" />
        </mxCell>
        <mxCell id="F9JthO-cuX8_xqFH1Uu4-183" value="&lt;div&gt;&lt;span style=&quot;background-color: initial;&quot;&gt;เท็จ&lt;/span&gt;&lt;/div&gt;" style="text;html=1;align=center;verticalAlign=middle;whiteSpace=wrap;rounded=0;" vertex="1" parent="1">
          <mxGeometry x="414" y="650" width="60" height="30" as="geometry" />
        </mxCell>
        <mxCell id="F9JthO-cuX8_xqFH1Uu4-184" value="&lt;div&gt;&lt;span style=&quot;background-color: initial;&quot;&gt;เท็จ&lt;/span&gt;&lt;/div&gt;" style="text;html=1;align=center;verticalAlign=middle;whiteSpace=wrap;rounded=0;" vertex="1" parent="1">
          <mxGeometry x="404" y="740" width="60" height="30" as="geometry" />
        </mxCell>
        <mxCell id="F9JthO-cuX8_xqFH1Uu4-185" value="&lt;div&gt;&lt;span style=&quot;background-color: initial;&quot;&gt;เท็จ&lt;/span&gt;&lt;/div&gt;" style="text;html=1;align=center;verticalAlign=middle;whiteSpace=wrap;rounded=0;" vertex="1" parent="1">
          <mxGeometry x="404" y="840" width="60" height="30" as="geometry" />
        </mxCell>
        <mxCell id="F9JthO-cuX8_xqFH1Uu4-186" value="&lt;div&gt;&lt;span style=&quot;background-color: initial;&quot;&gt;เท็จ&lt;/span&gt;&lt;/div&gt;" style="text;html=1;align=center;verticalAlign=middle;whiteSpace=wrap;rounded=0;" vertex="1" parent="1">
          <mxGeometry x="404" y="940" width="60" height="30" as="geometry" />
        </mxCell>
        <mxCell id="F9JthO-cuX8_xqFH1Uu4-187" value="&lt;div&gt;&lt;span style=&quot;background-color: initial;&quot;&gt;เท็จ&lt;/span&gt;&lt;/div&gt;" style="text;html=1;align=center;verticalAlign=middle;whiteSpace=wrap;rounded=0;" vertex="1" parent="1">
          <mxGeometry x="409" y="1050" width="60" height="30" as="geometry" />
        </mxCell>
        <mxCell id="F9JthO-cuX8_xqFH1Uu4-188" value="&lt;div&gt;&lt;span style=&quot;background-color: initial;&quot;&gt;เท็จ&lt;/span&gt;&lt;/div&gt;" style="text;html=1;align=center;verticalAlign=middle;whiteSpace=wrap;rounded=0;" vertex="1" parent="1">
          <mxGeometry x="409" y="1150" width="60" height="30" as="geometry" />
        </mxCell>
        <mxCell id="F9JthO-cuX8_xqFH1Uu4-189" value="&lt;div&gt;&lt;span style=&quot;background-color: initial;&quot;&gt;เท็จ&lt;/span&gt;&lt;/div&gt;" style="text;html=1;align=center;verticalAlign=middle;whiteSpace=wrap;rounded=0;" vertex="1" parent="1">
          <mxGeometry x="414.5" y="1250" width="60" height="30" as="geometry" />
        </mxCell>
        <mxCell id="F9JthO-cuX8_xqFH1Uu4-190" value="&lt;div&gt;&lt;span style=&quot;background-color: initial;&quot;&gt;เท็จ&lt;/span&gt;&lt;/div&gt;" style="text;html=1;align=center;verticalAlign=middle;whiteSpace=wrap;rounded=0;" vertex="1" parent="1">
          <mxGeometry x="414.5" y="1350" width="60" height="30" as="geometry" />
        </mxCell>
        <mxCell id="F9JthO-cuX8_xqFH1Uu4-191" value="&lt;div&gt;&lt;span style=&quot;background-color: initial;&quot;&gt;เท็จ&lt;/span&gt;&lt;/div&gt;" style="text;html=1;align=center;verticalAlign=middle;whiteSpace=wrap;rounded=0;" vertex="1" parent="1">
          <mxGeometry x="414.5" y="1450" width="60" height="30" as="geometry" />
        </mxCell>
        <mxCell id="F9JthO-cuX8_xqFH1Uu4-192" value="&lt;div&gt;&lt;span style=&quot;background-color: initial;&quot;&gt;เท็จ&lt;/span&gt;&lt;/div&gt;" style="text;html=1;align=center;verticalAlign=middle;whiteSpace=wrap;rounded=0;" vertex="1" parent="1">
          <mxGeometry x="419.5" y="1560" width="60" height="30" as="geometry" />
        </mxCell>
        <mxCell id="F9JthO-cuX8_xqFH1Uu4-193" value="&lt;div&gt;&lt;span style=&quot;background-color: initial;&quot;&gt;เท็จ&lt;/span&gt;&lt;/div&gt;" style="text;html=1;align=center;verticalAlign=middle;whiteSpace=wrap;rounded=0;" vertex="1" parent="1">
          <mxGeometry x="419.5" y="1660" width="60" height="30" as="geometry" />
        </mxCell>
        <mxCell id="F9JthO-cuX8_xqFH1Uu4-201" value="&lt;div&gt;&lt;span style=&quot;background-color: initial;&quot;&gt;เท็จ&lt;/span&gt;&lt;/div&gt;" style="text;html=1;align=center;verticalAlign=middle;whiteSpace=wrap;rounded=0;" vertex="1" parent="1">
          <mxGeometry x="406.5" y="1754" width="60" height="30" as="geometry" />
        </mxCell>
        <mxCell id="F9JthO-cuX8_xqFH1Uu4-202" value="&lt;div&gt;&lt;span style=&quot;background-color: initial;&quot;&gt;เท็จ&lt;/span&gt;&lt;/div&gt;" style="text;html=1;align=center;verticalAlign=middle;whiteSpace=wrap;rounded=0;" vertex="1" parent="1">
          <mxGeometry x="406.5" y="1854" width="60" height="30" as="geometry" />
        </mxCell>
        <mxCell id="F9JthO-cuX8_xqFH1Uu4-203" value="&lt;div&gt;&lt;span style=&quot;background-color: initial;&quot;&gt;เท็จ&lt;/span&gt;&lt;/div&gt;" style="text;html=1;align=center;verticalAlign=middle;whiteSpace=wrap;rounded=0;" vertex="1" parent="1">
          <mxGeometry x="406.5" y="1954" width="60" height="30" as="geometry" />
        </mxCell>
        <mxCell id="F9JthO-cuX8_xqFH1Uu4-204" value="&lt;div&gt;&lt;span style=&quot;background-color: initial;&quot;&gt;เท็จ&lt;/span&gt;&lt;/div&gt;" style="text;html=1;align=center;verticalAlign=middle;whiteSpace=wrap;rounded=0;" vertex="1" parent="1">
          <mxGeometry x="411.5" y="2064" width="60" height="30" as="geometry" />
        </mxCell>
        <mxCell id="F9JthO-cuX8_xqFH1Uu4-205" value="&lt;div&gt;&lt;span style=&quot;background-color: initial;&quot;&gt;เท็จ&lt;/span&gt;&lt;/div&gt;" style="text;html=1;align=center;verticalAlign=middle;whiteSpace=wrap;rounded=0;" vertex="1" parent="1">
          <mxGeometry x="411.5" y="2164" width="60" height="30" as="geometry" />
        </mxCell>
        <mxCell id="F9JthO-cuX8_xqFH1Uu4-212" value="&lt;div&gt;&lt;span style=&quot;background-color: initial;&quot;&gt;เท็จ&lt;/span&gt;&lt;/div&gt;" style="text;html=1;align=center;verticalAlign=middle;whiteSpace=wrap;rounded=0;" vertex="1" parent="1">
          <mxGeometry x="401.5" y="2250" width="60" height="30" as="geometry" />
        </mxCell>
        <mxCell id="F9JthO-cuX8_xqFH1Uu4-213" value="&lt;div&gt;&lt;span style=&quot;background-color: initial;&quot;&gt;เท็จ&lt;/span&gt;&lt;/div&gt;" style="text;html=1;align=center;verticalAlign=middle;whiteSpace=wrap;rounded=0;" vertex="1" parent="1">
          <mxGeometry x="401.5" y="2350" width="60" height="30" as="geometry" />
        </mxCell>
        <mxCell id="F9JthO-cuX8_xqFH1Uu4-214" value="&lt;div&gt;&lt;span style=&quot;background-color: initial;&quot;&gt;เท็จ&lt;/span&gt;&lt;/div&gt;" style="text;html=1;align=center;verticalAlign=middle;whiteSpace=wrap;rounded=0;" vertex="1" parent="1">
          <mxGeometry x="401.5" y="2450" width="60" height="30" as="geometry" />
        </mxCell>
        <mxCell id="F9JthO-cuX8_xqFH1Uu4-215" value="&lt;div&gt;&lt;span style=&quot;background-color: initial;&quot;&gt;เท็จ&lt;/span&gt;&lt;/div&gt;" style="text;html=1;align=center;verticalAlign=middle;whiteSpace=wrap;rounded=0;" vertex="1" parent="1">
          <mxGeometry x="406.5" y="2560" width="60" height="30" as="geometry" />
        </mxCell>
        <mxCell id="F9JthO-cuX8_xqFH1Uu4-216" value="&lt;div&gt;&lt;span style=&quot;background-color: initial;&quot;&gt;เท็จ&lt;/span&gt;&lt;/div&gt;" style="text;html=1;align=center;verticalAlign=middle;whiteSpace=wrap;rounded=0;" vertex="1" parent="1">
          <mxGeometry x="406.5" y="2660" width="60" height="30" as="geometry" />
        </mxCell>
        <mxCell id="F9JthO-cuX8_xqFH1Uu4-217" value="&lt;div&gt;&lt;span style=&quot;background-color: initial;&quot;&gt;เท็จ&lt;/span&gt;&lt;/div&gt;" style="text;html=1;align=center;verticalAlign=middle;whiteSpace=wrap;rounded=0;" vertex="1" parent="1">
          <mxGeometry x="404" y="2740" width="60" height="30" as="geometry" />
        </mxCell>
        <mxCell id="F9JthO-cuX8_xqFH1Uu4-218" value="&lt;div&gt;&lt;span style=&quot;background-color: initial;&quot;&gt;เท็จ&lt;/span&gt;&lt;/div&gt;" style="text;html=1;align=center;verticalAlign=middle;whiteSpace=wrap;rounded=0;" vertex="1" parent="1">
          <mxGeometry x="404" y="2840" width="60" height="30" as="geometry" />
        </mxCell>
        <mxCell id="F9JthO-cuX8_xqFH1Uu4-219" value="&lt;div&gt;&lt;span style=&quot;background-color: initial;&quot;&gt;เท็จ&lt;/span&gt;&lt;/div&gt;" style="text;html=1;align=center;verticalAlign=middle;whiteSpace=wrap;rounded=0;" vertex="1" parent="1">
          <mxGeometry x="404" y="2940" width="60" height="30" as="geometry" />
        </mxCell>
        <mxCell id="F9JthO-cuX8_xqFH1Uu4-220" value="&lt;div&gt;&lt;span style=&quot;background-color: initial;&quot;&gt;เท็จ&lt;/span&gt;&lt;/div&gt;" style="text;html=1;align=center;verticalAlign=middle;whiteSpace=wrap;rounded=0;" vertex="1" parent="1">
          <mxGeometry x="409.5" y="3240" width="60" height="30" as="geometry" />
        </mxCell>
        <mxCell id="F9JthO-cuX8_xqFH1Uu4-221" value="&lt;div&gt;&lt;span style=&quot;background-color: initial;&quot;&gt;เท็จ&lt;/span&gt;&lt;/div&gt;" style="text;html=1;align=center;verticalAlign=middle;whiteSpace=wrap;rounded=0;" vertex="1" parent="1">
          <mxGeometry x="406.5" y="3320" width="60" height="30" as="geometry" />
        </mxCell>
        <mxCell id="F9JthO-cuX8_xqFH1Uu4-234" value="" style="edgeStyle=orthogonalEdgeStyle;rounded=0;orthogonalLoop=1;jettySize=auto;html=1;" edge="1" parent="1" target="F9JthO-cuX8_xqFH1Uu4-236">
          <mxGeometry relative="1" as="geometry">
            <mxPoint x="414" y="3040" as="sourcePoint" />
          </mxGeometry>
        </mxCell>
        <mxCell id="F9JthO-cuX8_xqFH1Uu4-235" value="" style="edgeStyle=orthogonalEdgeStyle;rounded=0;orthogonalLoop=1;jettySize=auto;html=1;" edge="1" parent="1" source="F9JthO-cuX8_xqFH1Uu4-236" target="F9JthO-cuX8_xqFH1Uu4-237">
          <mxGeometry relative="1" as="geometry" />
        </mxCell>
        <mxCell id="F9JthO-cuX8_xqFH1Uu4-236" value="num เท่ากับ 30" style="rhombus;whiteSpace=wrap;html=1;" vertex="1" parent="1">
          <mxGeometry x="348.5" y="3080" width="131" height="60" as="geometry" />
        </mxCell>
        <mxCell id="F9JthO-cuX8_xqFH1Uu4-237" value="แสดง Thirty" style="rounded=0;whiteSpace=wrap;html=1;" vertex="1" parent="1">
          <mxGeometry x="510" y="3090" width="110" height="40" as="geometry" />
        </mxCell>
        <mxCell id="F9JthO-cuX8_xqFH1Uu4-238" value="" style="edgeStyle=orthogonalEdgeStyle;rounded=0;orthogonalLoop=1;jettySize=auto;html=1;" edge="1" parent="1" target="F9JthO-cuX8_xqFH1Uu4-240">
          <mxGeometry relative="1" as="geometry">
            <mxPoint x="414" y="3140" as="sourcePoint" />
          </mxGeometry>
        </mxCell>
        <mxCell id="F9JthO-cuX8_xqFH1Uu4-239" value="" style="edgeStyle=orthogonalEdgeStyle;rounded=0;orthogonalLoop=1;jettySize=auto;html=1;" edge="1" parent="1" source="F9JthO-cuX8_xqFH1Uu4-240" target="F9JthO-cuX8_xqFH1Uu4-241">
          <mxGeometry relative="1" as="geometry" />
        </mxCell>
        <mxCell id="F9JthO-cuX8_xqFH1Uu4-246" style="edgeStyle=orthogonalEdgeStyle;rounded=0;orthogonalLoop=1;jettySize=auto;html=1;exitX=0.5;exitY=1;exitDx=0;exitDy=0;entryX=0;entryY=1;entryDx=0;entryDy=0;" edge="1" parent="1" source="F9JthO-cuX8_xqFH1Uu4-240" target="F9JthO-cuX8_xqFH1Uu4-220">
          <mxGeometry relative="1" as="geometry" />
        </mxCell>
        <mxCell id="F9JthO-cuX8_xqFH1Uu4-240" value="num เท่ากับ 0" style="rhombus;whiteSpace=wrap;html=1;" vertex="1" parent="1">
          <mxGeometry x="348.5" y="3180" width="131" height="60" as="geometry" />
        </mxCell>
        <mxCell id="F9JthO-cuX8_xqFH1Uu4-241" value="แสดง Zero" style="rounded=0;whiteSpace=wrap;html=1;" vertex="1" parent="1">
          <mxGeometry x="510" y="3190" width="110" height="40" as="geometry" />
        </mxCell>
        <mxCell id="F9JthO-cuX8_xqFH1Uu4-242" value="&lt;div&gt;&lt;span style=&quot;background-color: initial;&quot;&gt;จริง&lt;/span&gt;&lt;/div&gt;" style="text;html=1;align=center;verticalAlign=middle;whiteSpace=wrap;rounded=0;" vertex="1" parent="1">
          <mxGeometry x="460" y="3180" width="60" height="30" as="geometry" />
        </mxCell>
        <mxCell id="F9JthO-cuX8_xqFH1Uu4-243" value="&lt;div&gt;&lt;span style=&quot;background-color: initial;&quot;&gt;จริง&lt;/span&gt;&lt;/div&gt;" style="text;html=1;align=center;verticalAlign=middle;whiteSpace=wrap;rounded=0;" vertex="1" parent="1">
          <mxGeometry x="460" y="3080" width="60" height="30" as="geometry" />
        </mxCell>
        <mxCell id="F9JthO-cuX8_xqFH1Uu4-244" value="&lt;div&gt;&lt;span style=&quot;background-color: initial;&quot;&gt;เท็จ&lt;/span&gt;&lt;/div&gt;" style="text;html=1;align=center;verticalAlign=middle;whiteSpace=wrap;rounded=0;" vertex="1" parent="1">
          <mxGeometry x="404" y="3040" width="60" height="30" as="geometry" />
        </mxCell>
        <mxCell id="F9JthO-cuX8_xqFH1Uu4-245" value="&lt;div&gt;&lt;span style=&quot;background-color: initial;&quot;&gt;เท็จ&lt;/span&gt;&lt;/div&gt;" style="text;html=1;align=center;verticalAlign=middle;whiteSpace=wrap;rounded=0;" vertex="1" parent="1">
          <mxGeometry x="404" y="3140" width="60" height="30" as="geometry" />
        </mxCell>
      </root>
    </mxGraphModel>
  </diagram>
</mxfile>
